<svg width="152" height="26" viewBox="0 0 152 26" fill="none" xmlns="http://www.w3.org/2000/svg">
<path d="M8.7695 23.0343C8.31967 23.7175 7.31664 23.7149 6.87036 23.0293L1.99946 15.5464C1.50801 14.7914 2.0498 13.7923 2.95064 13.7923L7.27347 13.7923C7.65687 13.7923 8.01435 13.9859 8.2239 14.3069L10.9493 18.4827C11.1962 18.861 11.1952 19.3498 10.9468 19.7271L8.7695 23.0343ZM8.72896 2.94926C8.27885 2.26559 7.27504 2.26871 6.82919 2.95517L1.99629 10.3963C1.5059 11.1513 2.04778 12.1494 2.9481 12.1494L7.27197 12.1494C7.65619 12.1494 8.01432 11.955 8.22366 11.6329L10.9099 7.49868C11.1556 7.12055 11.1541 6.63285 10.9061 6.25621L8.72896 2.94926Z" fill="white"/>
<path d="M15.3646 23.0343C15.8144 23.7175 16.8175 23.7149 17.2637 23.0293L22.1347 15.5464C22.6261 14.7914 22.0843 13.7923 21.1835 13.7923L16.8606 13.7923C16.4772 13.7923 16.1198 13.9859 15.9102 14.3069L13.1848 18.4827C12.9379 18.861 12.9389 19.3498 13.1873 19.7271L15.3646 23.0343ZM15.4052 2.94926C15.8553 2.26559 16.8591 2.26871 17.3049 2.95517L22.1378 10.3963C22.6282 11.1513 22.0863 12.1494 21.186 12.1494L16.8621 12.1494C16.4779 12.1494 16.1198 11.955 15.9104 11.6329L13.2242 7.49868C12.9785 7.12055 12.98 6.63285 13.228 6.25621L15.4052 2.94926Z" fill="white"/>
<path d="M32.7739 19H30.7264V6.29771H33.6271L36.5277 13.2745L37.6463 16.3079H37.798L38.8976 13.2745L41.7414 6.29771H44.642V19H42.6135V11.4924L42.6893 9.36901H42.5566L41.7603 11.4924L38.9165 18.2417H36.4519L33.5891 11.4924L32.8308 9.36901H32.6602L32.7739 11.4924V19ZM50.518 19.1896C47.4088 19.1896 45.949 17.2179 45.949 14.2793C45.949 11.3597 47.6932 9.38797 50.4991 9.38797C53.0395 9.38797 54.8216 10.9047 54.8216 13.483C54.8216 13.976 54.7648 14.4878 54.7079 14.7722H47.8638C47.9396 16.4975 48.5653 17.3696 50.537 17.3696C52.1105 17.3696 52.7172 16.8387 52.7172 15.9856V15.8339H54.7458V16.0045C54.7458 17.9383 53.0585 19.1896 50.518 19.1896ZM50.4611 11.1132C48.679 11.1132 47.9965 11.9474 47.8828 13.4072H52.8689C52.9447 11.7957 52.0726 11.1132 50.4611 11.1132ZM60.5862 19.2085C57.6477 19.2085 55.9793 17.2179 55.9793 14.2983C55.9793 11.3597 57.7045 9.38797 60.6621 9.38797C63.1457 9.38797 64.8519 10.9236 64.8519 13.1797V13.3503H62.8234V13.2366C62.8234 11.8526 62.1029 11.227 60.5294 11.227C58.7093 11.227 58.0079 12.2507 58.0079 14.2983C58.0079 16.3458 58.7093 17.3506 60.5294 17.3506C62.1029 17.3506 62.8234 16.7439 62.8234 15.3599V15.2462H64.8519V15.4168C64.8519 17.6539 63.1267 19.2085 60.5862 19.2085ZM68.2697 19H66.2221V6.29771H68.2697V11.1511H68.3455C68.7816 10.298 69.7864 9.38797 71.4926 9.38797C73.9573 9.38797 75 10.9995 75 13.0659V19H72.9525V13.5399C72.9525 11.8526 72.4216 11.1511 70.6964 11.1511C69.028 11.1511 68.2697 11.7957 68.2697 13.5778V19ZM79.3677 19.1896C77.6804 19.1896 76.3723 18.3175 76.3723 16.6681C76.3723 15.1135 77.5098 14.2983 79.5194 14.0139L82.8182 13.521V13.0091C82.8182 11.6061 82.1736 11.189 80.6948 11.189C79.1971 11.189 78.6094 11.663 78.6094 12.9143V13.1987H76.6377V13.0091C76.6377 10.9047 78.2871 9.38797 80.8086 9.38797C83.4439 9.38797 84.771 10.9805 84.771 13.2745V19H82.8751V17.5212H82.7803C82.2305 18.4123 81.1499 19.1896 79.3677 19.1896ZM78.3629 16.5164C78.3629 17.2558 78.8369 17.5591 80.0313 17.5591C81.3584 17.5591 82.8182 17.0283 82.8182 15.1324V14.9618L79.8228 15.4168C78.7421 15.5685 78.3629 15.8149 78.3629 16.5164ZM92.03 19H89.9825V6.29771H92.8832L95.7839 13.2745L96.9024 16.3079H97.0541L98.1537 13.2745L100.997 6.29771H103.898V19H101.87V11.4924L101.945 9.36901H101.813L101.016 11.4924L98.1726 18.2417H95.708L92.8453 11.4924L92.0869 9.36901H91.9163L92.03 11.4924V19ZM108.348 19.1896C106.66 19.1896 105.352 18.3175 105.352 16.6681C105.352 15.1135 106.49 14.2983 108.499 14.0139L111.798 13.521V13.0091C111.798 11.6061 111.154 11.189 109.675 11.189C108.177 11.189 107.589 11.663 107.589 12.9143V13.1987H105.618V13.0091C105.618 10.9047 107.267 9.38797 109.789 9.38797C112.424 9.38797 113.751 10.9805 113.751 13.2745V19H111.855V17.5212H111.76C111.211 18.4123 110.13 19.1896 108.348 19.1896ZM107.343 16.5164C107.343 17.2558 107.817 17.5591 109.011 17.5591C110.338 17.5591 111.798 17.0283 111.798 15.1324V14.9618L108.803 15.4168C107.722 15.5685 107.343 15.8149 107.343 16.5164ZM117.57 19H115.522V9.52068H117.399V11.0184H117.494C117.873 10.1463 118.745 9.38797 120.129 9.38797C122.101 9.38797 122.859 10.8288 122.859 12.592V13.2176H120.811V12.8384C120.811 11.5872 120.451 11.1322 119.257 11.1322C118.025 11.1322 117.57 11.6061 117.57 12.8574V19ZM126.026 19H123.979V6.29771H126.026V13.3124H127.884L130.406 9.57756H132.813L129.533 14.0328L132.756 19H130.368L127.903 15.1514H126.026V19ZM137.366 19.1896C134.256 19.1896 132.797 17.2179 132.797 14.2793C132.797 11.3597 134.541 9.38797 137.347 9.38797C139.887 9.38797 141.669 10.9047 141.669 13.483C141.669 13.976 141.612 14.4878 141.555 14.7722H134.711C134.787 16.4975 135.413 17.3696 137.385 17.3696C138.958 17.3696 139.565 16.8387 139.565 15.9856V15.8339H141.593V16.0045C141.593 17.9383 139.906 19.1896 137.366 19.1896ZM137.309 11.1132C135.527 11.1132 134.844 11.9474 134.73 13.4072H139.717C139.792 11.7957 138.92 11.1132 137.309 11.1132ZM146.964 19C144.86 19 143.76 18.2227 143.76 16.0993V11.2838H142.187V9.57756H143.798L144.234 7.24564H145.808V9.57756H148.652V11.2838H145.808V16.0045C145.808 16.9904 146.225 17.161 147.495 17.161H148.652V18.8294C148.254 18.9242 147.609 19 146.964 19Z" fill="white"/>
</svg>